<svg xmlns="http://www.w3.org/2000/svg" xmlns:xlink="http://www.w3.org/1999/xlink" version="1.1" width="460.8pt" height="345.6pt" viewBox="0 0 460.8 345.6">
<defs>
<clipPath id="clip_0">
<path transform="matrix(1,0,0,-1,0,345.6)" d="M57.6 38.016H414.72V304.128H57.6Z"/>
</clipPath>
<clipPath id="clip_1">
<path transform="matrix(1,0,0,-1,0,345.6)" d="M57.6 38.016H414.72V304.128H57.6Z"/>
</clipPath>
<clipPath id="clip_2">
<path transform="matrix(1,0,0,-1,0,345.6)" d="M57.6 38.016H414.72V304.128H57.6Z"/>
</clipPath>
<clipPath id="clip_3">
<path transform="matrix(1,0,0,-1,0,345.6)" d="M57.6 38.016H414.72V304.128H57.6Z"/>
</clipPath>
<clipPath id="clip_4">
<path transform="matrix(.01,0,0,-.01,58.512414,322.17778)" d="M-1021-463H1794V1233H-1021Z"/>
</clipPath>
<clipPath id="clip_5">
<path transform="matrix(.01,0,0,-.01,99.09423,322.17778)" d="M-1021-463H1794V1233H-1021Z"/>
</clipPath>
<clipPath id="clip_6">
<path transform="matrix(.01,0,0,-.01,139.67606,322.17778)" d="M-1021-463H1794V1233H-1021Z"/>
</clipPath>
<clipPath id="clip_7">
<path transform="matrix(.01,0,0,-.01,180.25788,322.17778)" d="M-1021-463H1794V1233H-1021Z"/>
</clipPath>
<clipPath id="clip_8">
<path transform="matrix(0,-.01,-.01,-0,28.209376,213.528)" d="M-1021-463H1794V1233H-1021Z"/>
</clipPath>
<clipPath id="clip_9">
<path transform="matrix(0,-.01,-.01,-0,28.209376,203.70867)" d="M-1021-463H1794V1233H-1021Z"/>
</clipPath>
<clipPath id="clip_10">
<path transform="matrix(0,-.01,-.01,-0,28.209376,151.32501)" d="M-1021-463H1794V1233H-1021Z"/>
</clipPath>
<clipPath id="clip_11">
<path transform="matrix(1,0,0,-1,0,345.6)" d="M57.6 38.016H414.72V304.128H57.6Z"/>
</clipPath>
<clipPath id="clip_12">
<path transform="matrix(1,0,0,-1,0,345.6)" d="M57.6 38.016H414.72V304.128H57.6Z"/>
</clipPath>
<clipPath id="clip_13">
<path transform="matrix(.01,0,0,-.01,345.43486,154.87175)" d="M-1021-463H1794V1233H-1021Z"/>
</clipPath>
<clipPath id="clip_14">
<path transform="matrix(.01,0,0,-.01,341.3323,184.54363)" d="M-1021-463H1794V1233H-1021Z"/>
</clipPath>
</defs>
<path transform="matrix(1,0,0,-1,0,345.6)" d="M0 0H460.8V345.6H0Z" fill="#ffffff"/>
<path transform="matrix(1,0,0,-1,0,345.6)" d="M57.6 38.016H414.72V304.128H57.6Z" fill="#ffffff"/>
<g clip-path="url(#clip_0)">
<path transform="matrix(1,0,0,-1,0,345.6)" stroke-width="1.5" stroke-linecap="butt" stroke-dasharray="5.55,2.4" stroke-linejoin="round" fill="none" stroke="#ddaa33" d="M57.6 126.77516H414.72"/>
</g>
<g clip-path="url(#clip_1)">
<path transform="matrix(1,0,0,-1,0,345.6)" stroke-width="1.5" stroke-linecap="butt" stroke-dasharray="6,1.5" stroke-dashoffset="3" stroke-linejoin="round" fill="none" stroke="#ddaa33" d="M57.6 50.162267H414.72"/>
</g>
<g clip-path="url(#clip_2)">
<path transform="matrix(1,0,0,-1,0,345.6)" stroke-width="1.5" stroke-linecap="butt" stroke-dasharray="5.55,2.4" stroke-linejoin="round" fill="none" stroke="#004488" d="M57.6 292.03587H414.72"/>
</g>
<g clip-path="url(#clip_3)">
<path transform="matrix(1,0,0,-1,0,345.6)" stroke-width="1.5" stroke-linecap="butt" stroke-dasharray="5.55,2.4" stroke-linejoin="round" fill="none" stroke="#004488" d="M57.6 50.107679H414.72"/>
</g>
<path transform="matrix(1,0,0,-1,0,345.6)" d="M73.832729 38.016V34.516"/>
<path transform="matrix(1,0,0,-1,0,345.6)" stroke-width=".8" stroke-linecap="butt" stroke-linejoin="round" fill="none" stroke="#000000" d="M73.832729 38.016V34.516"/>
<text xml:space="preserve" transform="matrix(1 0 -0 1 58.512414 322.17778)" font-size="10" font-family="DejaVuSans"><tspan y="0" x="8.378906 14.738907 17.918908 24.278908">1.00</tspan></text>
<g clip-path="url(#clip_4)">
<path transform="matrix(.01,0,0,-.01,58.512414,322.17778)" d="M106 355H732V272H106V355Z"/>
</g>
<path transform="matrix(1,0,0,-1,0,345.6)" d="M114.41454 38.016V34.516"/>
<path transform="matrix(1,0,0,-1,0,345.6)" stroke-width=".8" stroke-linecap="butt" stroke-linejoin="round" fill="none" stroke="#000000" d="M114.41454 38.016V34.516"/>
<text xml:space="preserve" transform="matrix(1 0 -0 1 99.09423 322.17778)" font-size="10" font-family="DejaVuSans"><tspan y="0" x="8.378906 14.738907 17.918908 24.278908">0.75</tspan></text>
<g clip-path="url(#clip_5)">
<path transform="matrix(.01,0,0,-.01,99.09423,322.17778)" d="M106 355H732V272H106V355Z"/>
</g>
<path transform="matrix(1,0,0,-1,0,345.6)" d="M154.99637 38.016V34.516"/>
<path transform="matrix(1,0,0,-1,0,345.6)" stroke-width=".8" stroke-linecap="butt" stroke-linejoin="round" fill="none" stroke="#000000" d="M154.99637 38.016V34.516"/>
<text xml:space="preserve" transform="matrix(1 0 -0 1 139.67606 322.17778)" font-size="10" font-family="DejaVuSans"><tspan y="0" x="8.378906 14.738907 17.918908 24.278908">0.50</tspan></text>
<g clip-path="url(#clip_6)">
<path transform="matrix(.01,0,0,-.01,139.67606,322.17778)" d="M106 355H732V272H106V355Z"/>
</g>
<path transform="matrix(1,0,0,-1,0,345.6)" d="M195.57819 38.016V34.516"/>
<path transform="matrix(1,0,0,-1,0,345.6)" stroke-width=".8" stroke-linecap="butt" stroke-linejoin="round" fill="none" stroke="#000000" d="M195.57819 38.016V34.516"/>
<text xml:space="preserve" transform="matrix(1 0 -0 1 180.25788 322.17778)" font-size="10" font-family="DejaVuSans"><tspan y="0" x="8.378906 14.738907 17.918908 24.278908">0.25</tspan></text>
<g clip-path="url(#clip_7)">
<path transform="matrix(.01,0,0,-.01,180.25788,322.17778)" d="M106 355H732V272H106V355Z"/>
</g>
<path transform="matrix(1,0,0,-1,0,345.6)" d="M236.16 38.016V34.516"/>
<path transform="matrix(1,0,0,-1,0,345.6)" stroke-width=".8" stroke-linecap="butt" stroke-linejoin="round" fill="none" stroke="#000000" d="M236.16 38.016V34.516"/>
<text xml:space="preserve" transform="matrix(1 0 -0 1 225.02719 322.17778)" font-size="10" font-family="DejaVuSans"><tspan y="0" x="0 6.3600008 9.540001 15.900002">0.00</tspan></text>
<path transform="matrix(1,0,0,-1,0,345.6)" d="M276.74183 38.016V34.516"/>
<path transform="matrix(1,0,0,-1,0,345.6)" stroke-width=".8" stroke-linecap="butt" stroke-linejoin="round" fill="none" stroke="#000000" d="M276.74183 38.016V34.516"/>
<text xml:space="preserve" transform="matrix(1 0 -0 1 265.609 322.17778)" font-size="10" font-family="DejaVuSans"><tspan y="0" x="0 6.3600008 9.540001 15.900002">0.25</tspan></text>
<path transform="matrix(1,0,0,-1,0,345.6)" d="M317.32365 38.016V34.516"/>
<path transform="matrix(1,0,0,-1,0,345.6)" stroke-width=".8" stroke-linecap="butt" stroke-linejoin="round" fill="none" stroke="#000000" d="M317.32365 38.016V34.516"/>
<text xml:space="preserve" transform="matrix(1 0 -0 1 306.19084 322.17778)" font-size="10" font-family="DejaVuSans"><tspan y="0" x="0 6.3600008 9.540001 15.900002">0.50</tspan></text>
<path transform="matrix(1,0,0,-1,0,345.6)" d="M357.90547 38.016V34.516"/>
<path transform="matrix(1,0,0,-1,0,345.6)" stroke-width=".8" stroke-linecap="butt" stroke-linejoin="round" fill="none" stroke="#000000" d="M357.90547 38.016V34.516"/>
<text xml:space="preserve" transform="matrix(1 0 -0 1 346.77265 322.17778)" font-size="10" font-family="DejaVuSans"><tspan y="0" x="0 6.3600008 9.540001 15.900002">0.75</tspan></text>
<path transform="matrix(1,0,0,-1,0,345.6)" d="M398.48728 38.016V34.516"/>
<path transform="matrix(1,0,0,-1,0,345.6)" stroke-width=".8" stroke-linecap="butt" stroke-linejoin="round" fill="none" stroke="#000000" d="M398.48728 38.016V34.516"/>
<text xml:space="preserve" transform="matrix(1 0 -0 1 387.35447 322.17778)" font-size="10" font-family="DejaVuSans"><tspan y="0" x="0 6.3600008 9.540001 15.900002">1.00</tspan></text>
<text xml:space="preserve" transform="matrix(1 0 -0 1 228.16 335.84965)" font-size="10" font-family="DejaVuSans"><tspan y="-.703125" x="0">u</tspan></text>
<text xml:space="preserve" transform="matrix(1 0 -0 1 228.16 335.84965)" font-size="10" font-family="DejaVuSans"><tspan y="-.703125" x="6.3378908">/</tspan></text>
<text xml:space="preserve" transform="matrix(1 0 -0 1 228.16 335.84965)" font-size="10" font-family="DejaVuSans"><tspan y="-.703125" x="9.707031">T</tspan></text>
<path transform="matrix(1,0,0,-1,0,345.6)" d="M57.6 50.176187H54.1"/>
<path transform="matrix(1,0,0,-1,0,345.6)" stroke-width=".8" stroke-linecap="butt" stroke-linejoin="round" fill="none" stroke="#000000" d="M57.6 50.176187H54.1"/>
<text xml:space="preserve" transform="matrix(1 0 -0 1 34.69375 299.2207)" font-size="10" font-family="DejaVuSans"><tspan y="0" x="0 6.3600008 9.540001">0.0</tspan></text>
<path transform="matrix(1,0,0,-1,0,345.6)" d="M57.6 88.49482H54.1"/>
<path transform="matrix(1,0,0,-1,0,345.6)" stroke-width=".8" stroke-linecap="butt" stroke-linejoin="round" fill="none" stroke="#000000" d="M57.6 88.49482H54.1"/>
<text xml:space="preserve" transform="matrix(1 0 -0 1 34.69375 260.90208)" font-size="10" font-family="DejaVuSans"><tspan y="0" x="0 6.3600008 9.540001">0.5</tspan></text>
<path transform="matrix(1,0,0,-1,0,345.6)" d="M57.6 126.81345H54.1"/>
<path transform="matrix(1,0,0,-1,0,345.6)" stroke-width=".8" stroke-linecap="butt" stroke-linejoin="round" fill="none" stroke="#000000" d="M57.6 126.81345H54.1"/>
<text xml:space="preserve" transform="matrix(1 0 -0 1 34.69375 222.58344)" font-size="10" font-family="DejaVuSans"><tspan y="0" x="0 6.3600008 9.540001">1.0</tspan></text>
<path transform="matrix(1,0,0,-1,0,345.6)" d="M57.6 165.1321H54.1"/>
<path transform="matrix(1,0,0,-1,0,345.6)" stroke-width=".8" stroke-linecap="butt" stroke-linejoin="round" fill="none" stroke="#000000" d="M57.6 165.1321H54.1"/>
<text xml:space="preserve" transform="matrix(1 0 -0 1 34.69375 184.26479)" font-size="10" font-family="DejaVuSans"><tspan y="0" x="0 6.3600008 9.540001">1.5</tspan></text>
<path transform="matrix(1,0,0,-1,0,345.6)" d="M57.6 203.45073H54.1"/>
<path transform="matrix(1,0,0,-1,0,345.6)" stroke-width=".8" stroke-linecap="butt" stroke-linejoin="round" fill="none" stroke="#000000" d="M57.6 203.45073H54.1"/>
<text xml:space="preserve" transform="matrix(1 0 -0 1 34.69375 145.94615)" font-size="10" font-family="DejaVuSans"><tspan y="0" x="0 6.3600008 9.540001">2.0</tspan></text>
<path transform="matrix(1,0,0,-1,0,345.6)" d="M57.6 241.76937H54.1"/>
<path transform="matrix(1,0,0,-1,0,345.6)" stroke-width=".8" stroke-linecap="butt" stroke-linejoin="round" fill="none" stroke="#000000" d="M57.6 241.76937H54.1"/>
<text xml:space="preserve" transform="matrix(1 0 -0 1 34.69375 107.62752)" font-size="10" font-family="DejaVuSans"><tspan y="0" x="0 6.3600008 9.540001">2.5</tspan></text>
<path transform="matrix(1,0,0,-1,0,345.6)" d="M57.6 280.088H54.1"/>
<path transform="matrix(1,0,0,-1,0,345.6)" stroke-width=".8" stroke-linecap="butt" stroke-linejoin="round" fill="none" stroke="#000000" d="M57.6 280.088H54.1"/>
<text xml:space="preserve" transform="matrix(1 0 -0 1 34.69375 69.30887)" font-size="10" font-family="DejaVuSans"><tspan y="0" x="0 6.3600008 9.540001">3.0</tspan></text>
<text xml:space="preserve" transform="matrix(0 -1 1 0 28.615626 213.528)" font-size="10" font-family="DejaVuSans"><tspan y="-.40625" x="3.9013673">v</tspan></text>
<text xml:space="preserve" transform="matrix(0 -1 1 0 28.615626 213.528)" font-size="10" font-family="DejaVuSans"><tspan y="-.40625" x="16.426617 20.327984 27.276226 33.42857 38.63853 41.41685 47.764509 54.102399">[Residue</tspan></text>
<text xml:space="preserve" transform="matrix(0 -1 1 0 28.615626 213.528)" font-size="10" font-family="DejaVuSans"><tspan y="-.40625" x="67.32994">k</tspan></text>
<text xml:space="preserve" transform="matrix(0 -1 1 0 28.615626 213.528)" font-size="10" font-family="DejaVuSans"><tspan y="-.40625" x="73.12096">]</tspan></text>
<g clip-path="url(#clip_8)">
<path transform="matrix(0,-.01,-.01,-0,28.209376,213.528)" d="M89 313 227 759H310L172 313 310-131H227L89 313Z"/>
</g>
<g clip-path="url(#clip_9)">
<path transform="matrix(0,-.01,-.01,-0,28.209376,203.70867)" d="M301 313 163-131H80L218 313 80 759H163L301 313Z"/>
</g>
<g clip-path="url(#clip_10)">
<path transform="matrix(0,-.01,-.01,-0,28.209376,151.32501)" d="M107 409H210V285H107V409Z"/>
</g>
<g clip-path="url(#clip_11)">
<path transform="matrix(1,0,0,-1,0,345.6)" stroke-width="1.5" stroke-linecap="square" stroke-linejoin="round" fill="none" stroke="#ddaa33" d="M73.832729 121.4699 77.11207 121.26686 80.3914 121.05667 83.670749 120.83913 86.95008 120.61403 90.22942 120.381168 93.50876 120.14033 96.7881 119.8913 100.06744 119.63388 103.34678 119.36786 106.626117 119.09302 109.90546 118.80916 113.18479 118.51605 116.464138 118.21352 119.74347 117.90133 123.02281 117.57929 126.30215 117.24721 129.58148 116.90489 132.86083 116.55214 136.14017 116.18878 139.41951 115.81463 142.69884 115.42953 145.97818 115.03331 149.25753 114.625827 152.53687 114.20693 155.8162 113.776508 159.09554 113.33443 162.37488 112.88059 165.65422 112.4149 168.93355 111.937297 172.21289 111.44771 175.49224 110.94609 178.77158 110.43243 182.0509 109.906719 185.33025 109.368968 188.60959 108.819217 191.88893 108.257518 195.16826 107.68396 198.4476 107.09863 201.72695 106.50168 205.00629 105.89324 208.28562 105.27349 211.56496 104.64264 214.8443 104.000919 218.12364 103.34856 221.40297 102.68586 224.68231 102.01312 227.96166 101.33068 231.241 100.638889 234.52033 99.93812 237.79967 99.2288 241.07901 98.511348 244.35836 97.78622 247.63768 97.05389 250.91703 96.314868 254.19637 95.569667 257.4757 94.81882 260.75505 94.06289 264.0344 93.30244 267.31373 92.53806 270.59306 91.77035 273.8724 90.999919 277.15174 90.22737 280.43107 89.45335 283.71043 88.678478 286.98976 87.90337 290.2691 87.128688 293.54844 86.355037 296.82777 85.58305 300.10713 84.81337 303.38645 84.046588 306.66578 83.28332 309.94514 82.52415 313.22447 81.76968 316.5038 81.020458 319.78315 80.27703 323.06248 79.53995 326.34184 78.809719 329.62117 78.08683 332.90049 77.37175 336.17985 76.66493 339.45918 75.9668 342.73854 75.27775 346.01786 74.59816 349.29719 73.92838 352.57655 73.26874 355.85588 72.61952 359.1352 71.98101 362.41456 71.353458 365.69389 70.73706 368.97325 70.13203 372.25257 69.53853 375.5319 68.9567 378.81126 68.38668 382.09059 67.828548 385.3699 67.28237 388.64927 66.748218 391.9286 66.22611 395.20796 65.71605 398.48728 65.21804"/>
</g>
<g clip-path="url(#clip_12)">
<path transform="matrix(1,0,0,-1,0,345.6)" stroke-width="1.5" stroke-linecap="square" stroke-linejoin="round" fill="none" stroke="#004488" d="M73.832729 292.032 77.11207 292.03114 80.3914 292.03007 83.670749 292.02879 86.95008 292.0272 90.22942 292.02525 93.50876 292.02287 96.7881 292.01997 100.06744 292.0164 103.34678 292.01203 106.626117 292.00669 109.90546 292.00016 113.18479 291.99217 116.464138 291.9824 119.74347 291.97044 123.02281 291.95579 126.30215 291.93788 129.58148 291.91593 132.86083 291.88908 136.14017 291.85624 139.41951 291.81608 142.69884 291.7669 145.97818 291.7068 149.25753 291.63325 152.53687 291.54328 155.8162 291.43327 159.09554 291.29878 162.37488 291.13438 165.65422 290.93348 168.93355 290.68806 172.21289 290.38835 175.49224 290.02259 178.77158 289.57643 182.0509 289.03263 185.33025 288.37046 188.60959 287.56498 191.88893 286.58656 195.16826 285.4 198.4476 283.96385 201.72695 282.2298 205.00629 280.14213 208.28562 277.6375 211.56496 274.6452 214.8443 271.08818 218.12364 266.88484 221.40297 261.95259 224.68231 256.21244 227.96166 249.59584 231.241 242.05263 234.52033 233.56049 237.79967 224.1343 241.07901 213.83415 244.35836 202.77017 247.63768 191.10224 250.91703 179.03356 254.19637 166.79804 257.4757 154.64284 260.75505 142.80873 264.0344 131.51148 267.31373 120.92734 270.59306 111.18433 273.8724 102.35991 277.15174 94.484149 280.43107 87.546848 283.71043 81.50667 286.98976 76.300579 290.2691 71.85253 293.54844 68.08065 296.82777 64.902698 300.10713 62.23986 303.38645 60.01919 306.66578 58.174875 309.94514 56.648698 313.22447 55.389989 316.5038 54.35518 319.78315 53.507158 323.06248 52.814558 326.34184 52.251016 329.62117 51.794446 332.90049 51.42638 336.17985 51.131383 339.45918 50.896528 342.73854 50.710969 346.01786 50.565599 349.29719 50.452737 352.57655 50.365949 355.85588 50.299844 359.1352 50.24996 362.41456 50.212648 365.69389 50.18495 368.97325 50.164529 372.25257 50.14954 375.5319 50.13858 378.81126 50.130575 382.09059 50.12473 385.3699 50.120458 388.64927 50.117319 391.9286 50.115 395.20796 50.11328 398.48728 50.112"/>
</g>
<path transform="matrix(1,0,0,-1,0,345.6)" stroke-width=".8" stroke-linecap="square" stroke-miterlimit="10" stroke-linejoin="miter" fill="none" stroke="#000000" d="M57.6 38.016V304.128"/>
<path transform="matrix(1,0,0,-1,0,345.6)" stroke-width=".8" stroke-linecap="square" stroke-miterlimit="10" stroke-linejoin="miter" fill="none" stroke="#000000" d="M414.72 38.016V304.128"/>
<path transform="matrix(1,0,0,-1,0,345.6)" stroke-width=".8" stroke-linecap="square" stroke-miterlimit="10" stroke-linejoin="miter" fill="none" stroke="#000000" d="M57.6 38.016H414.72"/>
<path transform="matrix(1,0,0,-1,0,345.6)" stroke-width=".8" stroke-linecap="square" stroke-miterlimit="10" stroke-linejoin="miter" fill="none" stroke="#000000" d="M57.6 304.128H414.72"/>
<g>
<path transform="matrix(1,0,0,-1,0,345.6)" d="M278.72 139.90013H407.72C409.05335 139.90013 409.72 140.56679 409.72 141.90013V200.24388C409.72 201.57721 409.05335 202.24388 407.72 202.24388H278.72C277.38667 202.24388 276.72 201.57721 276.72 200.24388V141.90013C276.72 140.56679 277.38667 139.90013 278.72 139.90013Z" fill="#ffffff" fill-opacity=".8"/>
<path transform="matrix(1,0,0,-1,0,345.6)" stroke-width="1" stroke-linecap="butt" stroke-miterlimit="10" stroke-linejoin="miter" fill="none" stroke="#d5d6d5" stroke-opacity=".8" d="M278.72 139.90013H407.72C409.05335 139.90013 409.72 140.56679 409.72 141.90013V200.24388C409.72 201.57721 409.05335 202.24388 407.72 202.24388H278.72C277.38667 202.24388 276.72 201.57721 276.72 200.24388V141.90013C276.72 140.56679 277.38667 139.90013 278.72 139.90013Z"/>
</g>
<path transform="matrix(1,0,0,-1,0,345.6)" stroke-width="1.5" stroke-linecap="square" stroke-linejoin="round" fill="none" stroke="#ddaa33" d="M280.72 193.822H290.72 300.72"/>
<text xml:space="preserve" transform="matrix(1 0 -0 1 308.72 155.278)" font-size="10" font-family="DejaVuSans"><tspan y="-.40625" x="0 6.3476564 13.330078 16.324219 22.686524 29.634766 32.813478">SC/2R (</tspan></text>
<text xml:space="preserve" transform="matrix(1 0 -0 1 308.72 155.278)" font-size="10" font-family="DejaVuSans"><tspan y="-.40625" x="43.555665">x</tspan></text>
<text xml:space="preserve" transform="matrix(1 0 -0 1 308.72 155.278)" font-size="10" font-family="DejaVuSans"><tspan y="-.40625" x="51.421876 61.749025 68.11133 71.29004 75.40137 81.55371 86.76367 89.94238">=2 res.)</tspan></text>
<g clip-path="url(#clip_13)">
<path transform="matrix(.01,0,0,-.01,345.43486,154.87175)" d="M342 632 142 82H542L342 632ZM8 0 286 729H398L676 0H8Z"/>
</g>
<path transform="matrix(1,0,0,-1,0,345.6)" stroke-width="1.5" stroke-linecap="butt" stroke-dasharray="5.55,2.4" stroke-linejoin="round" fill="none" stroke="#ddaa33" d="M280.72 179.15013H290.72 300.72"/>
<text xml:space="preserve" transform="matrix(1 0 -0 1 308.72 169.94988)" font-size="10" font-family="DejaVuSans"><tspan y="0" x="0 5.21 11.34 15.26 21.6 25.710001 31.84 35.760004 38.54 44.66">saturation</tspan></text>
<path transform="matrix(1,0,0,-1,0,345.6)" stroke-width="1.5" stroke-linecap="square" stroke-linejoin="round" fill="none" stroke="#004488" d="M280.72 164.15013H290.72 300.72"/>
<text xml:space="preserve" transform="matrix(1 0 -0 1 308.72 184.94988)" font-size="10" font-family="DejaVuSans"><tspan y="-.40625" x="0 6.948242 12.978516 19.960938 25.532227 28.710938">RPCL (</tspan></text>
<text xml:space="preserve" transform="matrix(1 0 -0 1 308.72 184.94988)" font-size="10" font-family="DejaVuSans"><tspan y="-.40625" x="39.453126">x</tspan></text>
<text xml:space="preserve" transform="matrix(1 0 -0 1 308.72 184.94988)" font-size="10" font-family="DejaVuSans"><tspan y="-.40625" x="47.319337 57.646486 64.00879 70.37109 73.549808 77.66113 83.81348 89.02344 92.20215">=10 res.)</tspan></text>
<g clip-path="url(#clip_14)">
<path transform="matrix(.01,0,0,-.01,341.3323,184.54363)" d="M342 632 142 82H542L342 632ZM8 0 286 729H398L676 0H8Z"/>
</g>
<path transform="matrix(1,0,0,-1,0,345.6)" stroke-width="1.5" stroke-linecap="butt" stroke-dasharray="5.55,2.4" stroke-linejoin="round" fill="none" stroke="#004488" d="M280.72 149.47826H290.72 300.72"/>
<text xml:space="preserve" transform="matrix(1 0 -0 1 308.72 199.62175)" font-size="10" font-family="DejaVuSans"><tspan y="0" x="0 5.21 11.34 15.26 21.6 25.710001 31.84 35.760004 38.54 44.66">saturation</tspan></text>
</svg>
