<svg xmlns="http://www.w3.org/2000/svg" xmlns:xlink="http://www.w3.org/1999/xlink" version="1.1" width="460.8pt" height="345.6pt" viewBox="0 0 460.8 345.6">
<defs>
<clipPath id="clip_0">
<path transform="matrix(0,-.01,-.01,-0,20.061875,186.51526)" d="M-1021-463H1794V1233H-1021Z"/>
</clipPath>
<clipPath id="clip_1">
<path transform="matrix(0,-.01,-.01,-0,20.061875,176.69593)" d="M-1021-463H1794V1233H-1021Z"/>
</clipPath>
<clipPath id="clip_2">
<path transform="matrix(0,-.01,-.01,-0,20.061875,124.31227)" d="M-1021-463H1794V1233H-1021Z"/>
</clipPath>
<clipPath id="clip_3">
<path transform="matrix(1,0,0,-1,0,345.6)" d="M49.4525 61.3695H450V334.80003H49.4525Z"/>
</clipPath>
<clipPath id="clip_4">
<path transform="matrix(1,0,0,-1,0,345.6)" d="M49.4525 61.3695H450V334.80003H49.4525Z"/>
</clipPath>
</defs>
<path transform="matrix(1,0,0,-1,0,345.6)" d="M0 0H460.8V345.6H0Z" fill="#ffffff"/>
<path transform="matrix(1,0,0,-1,0,345.6)" d="M49.4525 61.3695H450V334.8H49.4525Z" fill="#ffffff"/>
<path transform="matrix(1,0,0,-1,0,345.6)" d="M67.6592 61.3695V57.8695"/>
<path transform="matrix(1,0,0,-1,0,345.6)" stroke-width=".8" stroke-linecap="butt" stroke-linejoin="round" fill="none" stroke="#000000" d="M67.6592 61.3695V57.8695"/>
<text xml:space="preserve" transform="matrix(1 0 -0 1 58.659208 299.15238)" font-size="10" font-family="DejaVuSans"><tspan y="-.0640625" x="0 6.3623049">10</tspan></text>
<text xml:space="preserve" transform="matrix(1 0 -0 1 58.659208 299.15238)" font-size="7" font-family="DejaVuSans"><tspan y="-3.8921877" x="12.8203129">1</tspan></text>
<path transform="matrix(1,0,0,-1,0,345.6)" d="M140.48603 61.3695V57.8695"/>
<path transform="matrix(1,0,0,-1,0,345.6)" stroke-width=".8" stroke-linecap="butt" stroke-linejoin="round" fill="none" stroke="#000000" d="M140.48603 61.3695V57.8695"/>
<text xml:space="preserve" transform="matrix(1 0 -0 1 131.48603 300.15238)" font-size="10" font-family="DejaVuSans"><tspan y="-.9765625" x="0 6.3623049">10</tspan></text>
<text xml:space="preserve" transform="matrix(1 0 -0 1 131.48603 300.15238)" font-size="7" font-family="DejaVuSans"><tspan y="-4.8046877" x="12.8203129">2</tspan></text>
<path transform="matrix(1,0,0,-1,0,345.6)" d="M213.31284 61.3695V57.8695"/>
<path transform="matrix(1,0,0,-1,0,345.6)" stroke-width=".8" stroke-linecap="butt" stroke-linejoin="round" fill="none" stroke="#000000" d="M213.31284 61.3695V57.8695"/>
<text xml:space="preserve" transform="matrix(1 0 -0 1 204.31284 300.15238)" font-size="10" font-family="DejaVuSans"><tspan y="-.9765625" x="0 6.3623049">10</tspan></text>
<text xml:space="preserve" transform="matrix(1 0 -0 1 204.31284 300.15238)" font-size="7" font-family="DejaVuSans"><tspan y="-4.8046877" x="12.8203129">3</tspan></text>
<path transform="matrix(1,0,0,-1,0,345.6)" d="M286.13966 61.3695V57.8695"/>
<path transform="matrix(1,0,0,-1,0,345.6)" stroke-width=".8" stroke-linecap="butt" stroke-linejoin="round" fill="none" stroke="#000000" d="M286.13966 61.3695V57.8695"/>
<text xml:space="preserve" transform="matrix(1 0 -0 1 277.13966 299.15238)" font-size="10" font-family="DejaVuSans"><tspan y="-.0640625" x="0 6.3623049">10</tspan></text>
<text xml:space="preserve" transform="matrix(1 0 -0 1 277.13966 299.15238)" font-size="7" font-family="DejaVuSans"><tspan y="-3.8921877" x="12.8203129">4</tspan></text>
<path transform="matrix(1,0,0,-1,0,345.6)" d="M358.9665 61.3695V57.8695"/>
<path transform="matrix(1,0,0,-1,0,345.6)" stroke-width=".8" stroke-linecap="butt" stroke-linejoin="round" fill="none" stroke="#000000" d="M358.9665 61.3695V57.8695"/>
<text xml:space="preserve" transform="matrix(1 0 -0 1 349.9665 299.15238)" font-size="10" font-family="DejaVuSans"><tspan y="-.0640625" x="0 6.3623049">10</tspan></text>
<text xml:space="preserve" transform="matrix(1 0 -0 1 349.9665 299.15238)" font-size="7" font-family="DejaVuSans"><tspan y="-3.8921877" x="12.8203129">5</tspan></text>
<path transform="matrix(1,0,0,-1,0,345.6)" d="M431.7933 61.3695V57.8695"/>
<path transform="matrix(1,0,0,-1,0,345.6)" stroke-width=".8" stroke-linecap="butt" stroke-linejoin="round" fill="none" stroke="#000000" d="M431.7933 61.3695V57.8695"/>
<text xml:space="preserve" transform="matrix(1 0 -0 1 422.7933 300.15238)" font-size="10" font-family="DejaVuSans"><tspan y="-.9765625" x="0 6.3623049">10</tspan></text>
<text xml:space="preserve" transform="matrix(1 0 -0 1 422.7933 300.15238)" font-size="7" font-family="DejaVuSans"><tspan y="-4.8046877" x="12.8203129">6</tspan></text>
<path transform="matrix(1,0,0,-1,0,345.6)" d="M51.502668 61.3695V59.3695"/>
<path transform="matrix(1,0,0,-1,0,345.6)" stroke-width=".6" stroke-linecap="butt" stroke-linejoin="round" fill="none" stroke="#000000" d="M51.502668 61.3695V59.3695"/>
<path transform="matrix(1,0,0,-1,0,345.6)" d="M56.37819 61.3695V59.3695"/>
<path transform="matrix(1,0,0,-1,0,345.6)" stroke-width=".6" stroke-linecap="butt" stroke-linejoin="round" fill="none" stroke="#000000" d="M56.37819 61.3695V59.3695"/>
<path transform="matrix(1,0,0,-1,0,345.6)" d="M60.60156 61.3695V59.3695"/>
<path transform="matrix(1,0,0,-1,0,345.6)" stroke-width=".6" stroke-linecap="butt" stroke-linejoin="round" fill="none" stroke="#000000" d="M60.60156 61.3695V59.3695"/>
<path transform="matrix(1,0,0,-1,0,345.6)" d="M64.326839 61.3695V59.3695"/>
<path transform="matrix(1,0,0,-1,0,345.6)" stroke-width=".6" stroke-linecap="butt" stroke-linejoin="round" fill="none" stroke="#000000" d="M64.326839 61.3695V59.3695"/>
<path transform="matrix(1,0,0,-1,0,345.6)" d="M89.58226 61.3695V59.3695"/>
<path transform="matrix(1,0,0,-1,0,345.6)" stroke-width=".6" stroke-linecap="butt" stroke-linejoin="round" fill="none" stroke="#000000" d="M89.58226 61.3695V59.3695"/>
<path transform="matrix(1,0,0,-1,0,345.6)" d="M102.406429 61.3695V59.3695"/>
<path transform="matrix(1,0,0,-1,0,345.6)" stroke-width=".6" stroke-linecap="butt" stroke-linejoin="round" fill="none" stroke="#000000" d="M102.406429 61.3695V59.3695"/>
<path transform="matrix(1,0,0,-1,0,345.6)" d="M111.50532 61.3695V59.3695"/>
<path transform="matrix(1,0,0,-1,0,345.6)" stroke-width=".6" stroke-linecap="butt" stroke-linejoin="round" fill="none" stroke="#000000" d="M111.50532 61.3695V59.3695"/>
<path transform="matrix(1,0,0,-1,0,345.6)" d="M118.562969 61.3695V59.3695"/>
<path transform="matrix(1,0,0,-1,0,345.6)" stroke-width=".6" stroke-linecap="butt" stroke-linejoin="round" fill="none" stroke="#000000" d="M118.562969 61.3695V59.3695"/>
<path transform="matrix(1,0,0,-1,0,345.6)" d="M124.32948 61.3695V59.3695"/>
<path transform="matrix(1,0,0,-1,0,345.6)" stroke-width=".6" stroke-linecap="butt" stroke-linejoin="round" fill="none" stroke="#000000" d="M124.32948 61.3695V59.3695"/>
<path transform="matrix(1,0,0,-1,0,345.6)" d="M129.205 61.3695V59.3695"/>
<path transform="matrix(1,0,0,-1,0,345.6)" stroke-width=".6" stroke-linecap="butt" stroke-linejoin="round" fill="none" stroke="#000000" d="M129.205 61.3695V59.3695"/>
<path transform="matrix(1,0,0,-1,0,345.6)" d="M133.42838 61.3695V59.3695"/>
<path transform="matrix(1,0,0,-1,0,345.6)" stroke-width=".6" stroke-linecap="butt" stroke-linejoin="round" fill="none" stroke="#000000" d="M133.42838 61.3695V59.3695"/>
<path transform="matrix(1,0,0,-1,0,345.6)" d="M137.15366 61.3695V59.3695"/>
<path transform="matrix(1,0,0,-1,0,345.6)" stroke-width=".6" stroke-linecap="butt" stroke-linejoin="round" fill="none" stroke="#000000" d="M137.15366 61.3695V59.3695"/>
<path transform="matrix(1,0,0,-1,0,345.6)" d="M162.40908 61.3695V59.3695"/>
<path transform="matrix(1,0,0,-1,0,345.6)" stroke-width=".6" stroke-linecap="butt" stroke-linejoin="round" fill="none" stroke="#000000" d="M162.40908 61.3695V59.3695"/>
<path transform="matrix(1,0,0,-1,0,345.6)" d="M175.23325 61.3695V59.3695"/>
<path transform="matrix(1,0,0,-1,0,345.6)" stroke-width=".6" stroke-linecap="butt" stroke-linejoin="round" fill="none" stroke="#000000" d="M175.23325 61.3695V59.3695"/>
<path transform="matrix(1,0,0,-1,0,345.6)" d="M184.33214 61.3695V59.3695"/>
<path transform="matrix(1,0,0,-1,0,345.6)" stroke-width=".6" stroke-linecap="butt" stroke-linejoin="round" fill="none" stroke="#000000" d="M184.33214 61.3695V59.3695"/>
<path transform="matrix(1,0,0,-1,0,345.6)" d="M191.38979 61.3695V59.3695"/>
<path transform="matrix(1,0,0,-1,0,345.6)" stroke-width=".6" stroke-linecap="butt" stroke-linejoin="round" fill="none" stroke="#000000" d="M191.38979 61.3695V59.3695"/>
<path transform="matrix(1,0,0,-1,0,345.6)" d="M197.1563 61.3695V59.3695"/>
<path transform="matrix(1,0,0,-1,0,345.6)" stroke-width=".6" stroke-linecap="butt" stroke-linejoin="round" fill="none" stroke="#000000" d="M197.1563 61.3695V59.3695"/>
<path transform="matrix(1,0,0,-1,0,345.6)" d="M202.03183 61.3695V59.3695"/>
<path transform="matrix(1,0,0,-1,0,345.6)" stroke-width=".6" stroke-linecap="butt" stroke-linejoin="round" fill="none" stroke="#000000" d="M202.03183 61.3695V59.3695"/>
<path transform="matrix(1,0,0,-1,0,345.6)" d="M206.25519 61.3695V59.3695"/>
<path transform="matrix(1,0,0,-1,0,345.6)" stroke-width=".6" stroke-linecap="butt" stroke-linejoin="round" fill="none" stroke="#000000" d="M206.25519 61.3695V59.3695"/>
<path transform="matrix(1,0,0,-1,0,345.6)" d="M209.98047 61.3695V59.3695"/>
<path transform="matrix(1,0,0,-1,0,345.6)" stroke-width=".6" stroke-linecap="butt" stroke-linejoin="round" fill="none" stroke="#000000" d="M209.98047 61.3695V59.3695"/>
<path transform="matrix(1,0,0,-1,0,345.6)" d="M235.2359 61.3695V59.3695"/>
<path transform="matrix(1,0,0,-1,0,345.6)" stroke-width=".6" stroke-linecap="butt" stroke-linejoin="round" fill="none" stroke="#000000" d="M235.2359 61.3695V59.3695"/>
<path transform="matrix(1,0,0,-1,0,345.6)" d="M248.06006 61.3695V59.3695"/>
<path transform="matrix(1,0,0,-1,0,345.6)" stroke-width=".6" stroke-linecap="butt" stroke-linejoin="round" fill="none" stroke="#000000" d="M248.06006 61.3695V59.3695"/>
<path transform="matrix(1,0,0,-1,0,345.6)" d="M257.15898 61.3695V59.3695"/>
<path transform="matrix(1,0,0,-1,0,345.6)" stroke-width=".6" stroke-linecap="butt" stroke-linejoin="round" fill="none" stroke="#000000" d="M257.15898 61.3695V59.3695"/>
<path transform="matrix(1,0,0,-1,0,345.6)" d="M264.2166 61.3695V59.3695"/>
<path transform="matrix(1,0,0,-1,0,345.6)" stroke-width=".6" stroke-linecap="butt" stroke-linejoin="round" fill="none" stroke="#000000" d="M264.2166 61.3695V59.3695"/>
<path transform="matrix(1,0,0,-1,0,345.6)" d="M269.98313 61.3695V59.3695"/>
<path transform="matrix(1,0,0,-1,0,345.6)" stroke-width=".6" stroke-linecap="butt" stroke-linejoin="round" fill="none" stroke="#000000" d="M269.98313 61.3695V59.3695"/>
<path transform="matrix(1,0,0,-1,0,345.6)" d="M274.85865 61.3695V59.3695"/>
<path transform="matrix(1,0,0,-1,0,345.6)" stroke-width=".6" stroke-linecap="butt" stroke-linejoin="round" fill="none" stroke="#000000" d="M274.85865 61.3695V59.3695"/>
<path transform="matrix(1,0,0,-1,0,345.6)" d="M279.082 61.3695V59.3695"/>
<path transform="matrix(1,0,0,-1,0,345.6)" stroke-width=".6" stroke-linecap="butt" stroke-linejoin="round" fill="none" stroke="#000000" d="M279.082 61.3695V59.3695"/>
<path transform="matrix(1,0,0,-1,0,345.6)" d="M282.80729 61.3695V59.3695"/>
<path transform="matrix(1,0,0,-1,0,345.6)" stroke-width=".6" stroke-linecap="butt" stroke-linejoin="round" fill="none" stroke="#000000" d="M282.80729 61.3695V59.3695"/>
<path transform="matrix(1,0,0,-1,0,345.6)" d="M308.0627 61.3695V59.3695"/>
<path transform="matrix(1,0,0,-1,0,345.6)" stroke-width=".6" stroke-linecap="butt" stroke-linejoin="round" fill="none" stroke="#000000" d="M308.0627 61.3695V59.3695"/>
<path transform="matrix(1,0,0,-1,0,345.6)" d="M320.88688 61.3695V59.3695"/>
<path transform="matrix(1,0,0,-1,0,345.6)" stroke-width=".6" stroke-linecap="butt" stroke-linejoin="round" fill="none" stroke="#000000" d="M320.88688 61.3695V59.3695"/>
<path transform="matrix(1,0,0,-1,0,345.6)" d="M329.98579 61.3695V59.3695"/>
<path transform="matrix(1,0,0,-1,0,345.6)" stroke-width=".6" stroke-linecap="butt" stroke-linejoin="round" fill="none" stroke="#000000" d="M329.98579 61.3695V59.3695"/>
<path transform="matrix(1,0,0,-1,0,345.6)" d="M337.04344 61.3695V59.3695"/>
<path transform="matrix(1,0,0,-1,0,345.6)" stroke-width=".6" stroke-linecap="butt" stroke-linejoin="round" fill="none" stroke="#000000" d="M337.04344 61.3695V59.3695"/>
<path transform="matrix(1,0,0,-1,0,345.6)" d="M342.80995 61.3695V59.3695"/>
<path transform="matrix(1,0,0,-1,0,345.6)" stroke-width=".6" stroke-linecap="butt" stroke-linejoin="round" fill="none" stroke="#000000" d="M342.80995 61.3695V59.3695"/>
<path transform="matrix(1,0,0,-1,0,345.6)" d="M347.68547 61.3695V59.3695"/>
<path transform="matrix(1,0,0,-1,0,345.6)" stroke-width=".6" stroke-linecap="butt" stroke-linejoin="round" fill="none" stroke="#000000" d="M347.68547 61.3695V59.3695"/>
<path transform="matrix(1,0,0,-1,0,345.6)" d="M351.90885 61.3695V59.3695"/>
<path transform="matrix(1,0,0,-1,0,345.6)" stroke-width=".6" stroke-linecap="butt" stroke-linejoin="round" fill="none" stroke="#000000" d="M351.90885 61.3695V59.3695"/>
<path transform="matrix(1,0,0,-1,0,345.6)" d="M355.6341 61.3695V59.3695"/>
<path transform="matrix(1,0,0,-1,0,345.6)" stroke-width=".6" stroke-linecap="butt" stroke-linejoin="round" fill="none" stroke="#000000" d="M355.6341 61.3695V59.3695"/>
<path transform="matrix(1,0,0,-1,0,345.6)" d="M380.88954 61.3695V59.3695"/>
<path transform="matrix(1,0,0,-1,0,345.6)" stroke-width=".6" stroke-linecap="butt" stroke-linejoin="round" fill="none" stroke="#000000" d="M380.88954 61.3695V59.3695"/>
<path transform="matrix(1,0,0,-1,0,345.6)" d="M393.7137 61.3695V59.3695"/>
<path transform="matrix(1,0,0,-1,0,345.6)" stroke-width=".6" stroke-linecap="butt" stroke-linejoin="round" fill="none" stroke="#000000" d="M393.7137 61.3695V59.3695"/>
<path transform="matrix(1,0,0,-1,0,345.6)" d="M402.8126 61.3695V59.3695"/>
<path transform="matrix(1,0,0,-1,0,345.6)" stroke-width=".6" stroke-linecap="butt" stroke-linejoin="round" fill="none" stroke="#000000" d="M402.8126 61.3695V59.3695"/>
<path transform="matrix(1,0,0,-1,0,345.6)" d="M409.87025 61.3695V59.3695"/>
<path transform="matrix(1,0,0,-1,0,345.6)" stroke-width=".6" stroke-linecap="butt" stroke-linejoin="round" fill="none" stroke="#000000" d="M409.87025 61.3695V59.3695"/>
<path transform="matrix(1,0,0,-1,0,345.6)" d="M415.63676 61.3695V59.3695"/>
<path transform="matrix(1,0,0,-1,0,345.6)" stroke-width=".6" stroke-linecap="butt" stroke-linejoin="round" fill="none" stroke="#000000" d="M415.63676 61.3695V59.3695"/>
<path transform="matrix(1,0,0,-1,0,345.6)" d="M420.51228 61.3695V59.3695"/>
<path transform="matrix(1,0,0,-1,0,345.6)" stroke-width=".6" stroke-linecap="butt" stroke-linejoin="round" fill="none" stroke="#000000" d="M420.51228 61.3695V59.3695"/>
<path transform="matrix(1,0,0,-1,0,345.6)" d="M424.73567 61.3695V59.3695"/>
<path transform="matrix(1,0,0,-1,0,345.6)" stroke-width=".6" stroke-linecap="butt" stroke-linejoin="round" fill="none" stroke="#000000" d="M424.73567 61.3695V59.3695"/>
<path transform="matrix(1,0,0,-1,0,345.6)" d="M428.46095 61.3695V59.3695"/>
<path transform="matrix(1,0,0,-1,0,345.6)" stroke-width=".6" stroke-linecap="butt" stroke-linejoin="round" fill="none" stroke="#000000" d="M428.46095 61.3695V59.3695"/>
<text xml:space="preserve" transform="matrix(1 0 -0 1 202.72626 321.2305)" font-size="9.8" font-family="DejaVuSans"><tspan y="-7.5515625" x="1 4.82334 11.527344 17.513575 23.423243">[ATP]</tspan><tspan y="5.5625" x="0 3.82334 10.527344 18.073536 23.983204">[ADP]</tspan></text>
<text xml:space="preserve" transform="matrix(1 0 -0 1 202.72626 321.2305)" font-size="11.845372" font-family="STIXSizeTwoSym"><tspan y="3.55625" x="29.556544">/</tspan></text>
<text xml:space="preserve" transform="matrix(1 0 -0 1 202.72626 321.2305)" font-size="9.8" font-family="DejaVuSans"><tspan y="-7.551563" x="40.102594 43.925935 50.629938 56.616167 62.525835">[ATP]</tspan><tspan y="5.5624997" x="39.102594 42.925935 49.629938 57.17613 63.085798">[ADP]</tspan></text>
<text xml:space="preserve" transform="matrix(1 0 -0 1 202.72626 321.2305)" font-size="21.853125" font-family="DejaVuSans"><tspan y="1.6968746" x="68.659137">|</tspan></text>
<text xml:space="preserve" transform="matrix(1 0 -0 1 202.72626 321.2305)" font-size="9.8" font-family="DejaVuSans"><tspan y="2.1687496" x="76.15259 82.181888">eq</tspan></text>
<text xml:space="preserve" transform="matrix(1 0 -0 1 202.72626 321.2305)" font-size="9.8" font-family="DejaVuSans"><tspan y="2.1687496" x="88.40259">.</tspan></text>
<path transform="matrix(1,0,0,-1,202.72626,321.2305)" d="M0 2.7609375H27.806544V3.6359375H0Z"/>
<path transform="matrix(1,0,0,-1,202.72626,321.2305)" d="M39.102594 2.7609375H66.909137V3.6359375H39.102594Z"/>
<path transform="matrix(1,0,0,-1,0,345.6)" d="M49.4525 73.62356H45.9525"/>
<path transform="matrix(1,0,0,-1,0,345.6)" stroke-width=".8" stroke-linecap="butt" stroke-linejoin="round" fill="none" stroke="#000000" d="M49.4525 73.62356H45.9525"/>
<text xml:space="preserve" transform="matrix(1 0 -0 1 26.54625 275.77333)" font-size="10" font-family="DejaVuSans"><tspan y="0" x="0 6.3600008 9.540001">0.0</tspan></text>
<path transform="matrix(1,0,0,-1,0,345.6)" d="M49.4525 127.17242H45.9525"/>
<path transform="matrix(1,0,0,-1,0,345.6)" stroke-width=".8" stroke-linecap="butt" stroke-linejoin="round" fill="none" stroke="#000000" d="M49.4525 127.17242H45.9525"/>
<text xml:space="preserve" transform="matrix(1 0 -0 1 26.54625 222.22446)" font-size="10" font-family="DejaVuSans"><tspan y="0" x="0 6.3600008 9.540001">0.5</tspan></text>
<path transform="matrix(1,0,0,-1,0,345.6)" d="M49.4525 180.72129H45.9525"/>
<path transform="matrix(1,0,0,-1,0,345.6)" stroke-width=".8" stroke-linecap="butt" stroke-linejoin="round" fill="none" stroke="#000000" d="M49.4525 180.72129H45.9525"/>
<text xml:space="preserve" transform="matrix(1 0 -0 1 26.54625 168.6756)" font-size="10" font-family="DejaVuSans"><tspan y="0" x="0 6.3600008 9.540001">1.0</tspan></text>
<path transform="matrix(1,0,0,-1,0,345.6)" d="M49.4525 234.27014H45.9525"/>
<path transform="matrix(1,0,0,-1,0,345.6)" stroke-width=".8" stroke-linecap="butt" stroke-linejoin="round" fill="none" stroke="#000000" d="M49.4525 234.27014H45.9525"/>
<text xml:space="preserve" transform="matrix(1 0 -0 1 26.54625 115.12674)" font-size="10" font-family="DejaVuSans"><tspan y="0" x="0 6.3600008 9.540001">1.5</tspan></text>
<path transform="matrix(1,0,0,-1,0,345.6)" d="M49.4525 287.819H45.9525"/>
<path transform="matrix(1,0,0,-1,0,345.6)" stroke-width=".8" stroke-linecap="butt" stroke-linejoin="round" fill="none" stroke="#000000" d="M49.4525 287.819H45.9525"/>
<text xml:space="preserve" transform="matrix(1 0 -0 1 26.54625 61.57788)" font-size="10" font-family="DejaVuSans"><tspan y="0" x="0 6.3600008 9.540001">2.0</tspan></text>
<text xml:space="preserve" transform="matrix(0 -1 1 0 20.468125 186.51526)" font-size="10" font-family="DejaVuSans"><tspan y="-.40625" x="3.9013673">v</tspan></text>
<text xml:space="preserve" transform="matrix(0 -1 1 0 20.468125 186.51526)" font-size="10" font-family="DejaVuSans"><tspan y="-.40625" x="16.426617 20.327984 27.276226 33.42857 38.63853 41.41685 47.764509 54.102399">[Residue</tspan></text>
<text xml:space="preserve" transform="matrix(0 -1 1 0 20.468125 186.51526)" font-size="10" font-family="DejaVuSans"><tspan y="-.40625" x="67.32994">k</tspan></text>
<text xml:space="preserve" transform="matrix(0 -1 1 0 20.468125 186.51526)" font-size="10" font-family="DejaVuSans"><tspan y="-.40625" x="73.12096">]</tspan></text>
<g clip-path="url(#clip_0)">
<path transform="matrix(0,-.01,-.01,-0,20.061875,186.51526)" d="M89 313 227 759H310L172 313 310-131H227L89 313Z"/>
</g>
<g clip-path="url(#clip_1)">
<path transform="matrix(0,-.01,-.01,-0,20.061875,176.69593)" d="M301 313 163-131H80L218 313 80 759H163L301 313Z"/>
</g>
<g clip-path="url(#clip_2)">
<path transform="matrix(0,-.01,-.01,-0,20.061875,124.31227)" d="M107 409H210V285H107V409Z"/>
</g>
<g clip-path="url(#clip_3)">
<path transform="matrix(1,0,0,-1,0,345.6)" stroke-width="1.5" stroke-linecap="square" stroke-linejoin="round" fill="none" stroke="#ddaa33" d="M67.6592 73.79816 71.337329 73.822017 75.01545 73.84879 78.69357 73.87885 82.3717 73.91258 86.04981 73.95043 89.727939 73.992908 93.40606 74.04055 97.08418 74.093997 100.76231 74.15392 104.44043 74.22112 108.118549 74.296459 111.79667 74.38088 115.47479 74.475467 119.152919 74.581409 122.83104 74.70002 126.509159 74.83277 130.18729 74.98127 133.8654 75.147319 137.54352 75.33287 141.22165 75.54009 144.89977 75.77136 148.5779 76.02925 152.25601 76.31659 155.93415 76.63642 159.61226 76.99204 163.29038 77.38698 166.9685 77.825 170.64662 78.31008 174.32476 78.846408 178.00287 79.43832 181.68099 80.09026 185.35912 80.80678 189.03723 81.59234 192.71537 82.451328 196.39348 83.38789 200.0716 84.40583 203.74973 85.50842 207.42784 86.69827 211.10597 87.977169 214.78409 89.34585 218.46222 90.803897 222.14034 92.34953 225.81845 93.97953 229.49658 95.689098 233.1747 97.47181 236.85283 99.31971 240.53095 101.2233 244.20906 103.17174 247.88719 105.15307 251.5653 107.15446 255.24344 109.16256 258.92158 111.163829 262.59968 113.144908 266.2778 115.09299 269.95594 116.99611 273.63404 118.843448 277.31217 120.62552 280.9903 122.33437 284.6684 123.96361 288.34654 125.50845 292.02467 126.96568 295.7028 128.33353 299.3809 129.61159 303.05903 130.80063 306.73716 131.90242 310.41526 132.91959 314.09339 133.85543 317.7715 134.71372 321.44966 135.49861 325.12776 136.21451 328.80589 136.86589 332.484 137.45726 336.1621 137.99309 339.84025 138.47772 343.51838 138.91533 347.19648 139.30988 350.8746 139.66516 354.55274 139.98467 358.23088 140.27173 361.90898 140.52936 365.5871 140.76039 369.26524 140.9674 372.94334 141.15277 376.62147 141.31864 380.2996 141.467 383.97773 141.5996 387.65583 141.7181 391.33396 141.82392 395.0121 141.91841 398.6902 142.00275 402.36833 142.07799 406.04646 142.14513 409.72456 142.20499 413.40269 142.25838 417.0808 142.30597 420.75895 142.3484 424.43705 142.38622 428.11518 142.4199 431.7933 142.44992"/>
</g>
<g clip-path="url(#clip_4)">
<path transform="matrix(1,0,0,-1,0,345.6)" stroke-width="1.5" stroke-linecap="square" stroke-linejoin="round" fill="none" stroke="#004488" d="M67.6592 74.08118 71.337329 74.14375 75.01545 74.214008 78.69357 74.29288 82.3717 74.38142 86.04981 74.480808 89.727939 74.59235 93.40606 74.71753 97.08418 74.858 100.76231 75.0156 104.44043 75.192409 108.118549 75.39071 111.79667 75.6131 115.47479 75.862438 119.152919 76.14192 122.83104 76.45513 126.509159 76.806018 130.18729 77.19899 133.8654 77.63893 137.54352 78.13126 141.22165 78.68197 144.89977 79.297649 148.5779 79.98557 152.25601 80.75373 155.93415 81.61086 159.61226 82.56651 163.29038 83.63105 166.9685 84.81572 170.64662 86.13261 174.32476 87.59469 178.00287 89.21575 181.68099 91.010379 185.35912 92.99382 189.03723 95.181919 192.71537 97.59085 196.39348 100.236988 200.0716 103.136508 203.74973 106.305118 207.42784 109.75759 211.10597 113.50729 214.78409 117.56563 218.46222 121.94142 222.14034 126.64035 225.81845 131.66428 229.49658 137.0106 233.1747 142.67183 236.85283 148.63501 240.53095 154.88155 244.20906 161.38698 247.88719 168.12122 251.5653 175.0488 255.24344 182.12957 258.92158 189.3194 262.59968 196.57138 266.2778 203.83693 269.95594 211.0671 273.63404 218.21387 277.31217 225.23145 280.9903 232.07738 284.6684 238.71349 288.34654 245.10668 292.02467 251.22931 295.7028 257.0596 299.3809 262.58143 303.05903 267.7844 306.73716 272.66319 310.41526 277.21733 314.09339 281.4504 317.7715 285.36964 321.44966 288.98506 325.12776 292.30897 328.80589 295.3555 332.484 298.13987 336.1621 300.67805 339.84025 302.98634 343.51838 305.08103 347.19648 306.9782 350.8746 308.69346 354.55274 310.24177 358.23088 311.63734 361.90898 312.89363 365.5871 314.0232 369.26524 315.03776 372.94334 315.94816 376.62147 316.76445 380.2996 317.4957 383.97773 318.15043 387.65583 318.7362 391.33396 319.26008 395.0121 319.7283 398.6902 320.14665 402.36833 320.52024 406.04646 320.85377 409.72456 321.15147 413.40269 321.41706 417.0808 321.654 420.75895 321.86528 424.43705 322.05369 428.11518 322.22163 431.7933 322.37135"/>
</g>
<path transform="matrix(1,0,0,-1,0,345.6)" stroke-width=".8" stroke-linecap="square" stroke-miterlimit="10" stroke-linejoin="miter" fill="none" stroke="#000000" d="M49.4525 61.3695V334.8"/>
<path transform="matrix(1,0,0,-1,0,345.6)" stroke-width=".8" stroke-linecap="square" stroke-miterlimit="10" stroke-linejoin="miter" fill="none" stroke="#000000" d="M450 61.3695V334.8"/>
<path transform="matrix(1,0,0,-1,0,345.6)" stroke-width=".8" stroke-linecap="square" stroke-miterlimit="10" stroke-linejoin="miter" fill="none" stroke="#000000" d="M49.4525 61.3695H450"/>
<path transform="matrix(1,0,0,-1,0,345.6)" stroke-width=".8" stroke-linecap="square" stroke-miterlimit="10" stroke-linejoin="miter" fill="none" stroke="#000000" d="M49.4525 334.8H450"/>
<g>
<path transform="matrix(1,0,0,-1,0,345.6)" d="M56.4525 297.45625H118.468128C119.80146 297.45625 120.468128 298.12294 120.468128 299.45625V327.8C120.468128 329.13334 119.80146 329.8 118.468128 329.8H56.4525C55.119169 329.8 54.4525 329.13334 54.4525 327.8V299.45625C54.4525 298.12294 55.119169 297.45625 56.4525 297.45625Z" fill="#ffffff" fill-opacity=".8"/>
<path transform="matrix(1,0,0,-1,0,345.6)" stroke-width="1" stroke-linecap="butt" stroke-miterlimit="10" stroke-linejoin="miter" fill="none" stroke="#d5d6d5" stroke-opacity=".8" d="M56.4525 297.45625H118.468128C119.80146 297.45625 120.468128 298.12294 120.468128 299.45625V327.8C120.468128 329.13334 119.80146 329.8 118.468128 329.8H56.4525C55.119169 329.8 54.4525 329.13334 54.4525 327.8V299.45625C54.4525 298.12294 55.119169 297.45625 56.4525 297.45625Z"/>
</g>
<path transform="matrix(1,0,0,-1,0,345.6)" stroke-width="1.5" stroke-linecap="square" stroke-linejoin="round" fill="none" stroke="#ddaa33" d="M58.4525 321.70625H68.4525 78.4525"/>
<text xml:space="preserve" transform="matrix(1 0 -0 1 86.4525 27.393769)" font-size="10" font-family="DejaVuSans"><tspan y="0" x="0 6.3500006 13.33 16.7 23.060002">SC/2R</tspan></text>
<path transform="matrix(1,0,0,-1,0,345.6)" stroke-width="1.5" stroke-linecap="square" stroke-linejoin="round" fill="none" stroke="#004488" d="M58.4525 307.03437H68.4525 78.4525"/>
<text xml:space="preserve" transform="matrix(1 0 -0 1 86.4525 42.065645)" font-size="10" font-family="DejaVuSans"><tspan y="0" x="0 6.950001 12.980001 19.960001">RPCL</tspan></text>
</svg>
